# xmcd
#
# Track frame offsets:
#	150
#	27302
#	44280
#	62525
#	79343
#	104082
#	126357
#	146969
#	170284
#	190666
#	212991
#	240963
#	269374
#	289560
#
# Disc length: 4083
#
# Revision: 1
# Processed by: cddbd v1.5.1PL0 Copyright (c) Steve Scherf et al.
# Submitted via: CDex 1.50
# Normalized: r0:TDELIM( - )
#
DISCID=cf0ff10e
DTITLE=Various Artist - NAV July 2001 Sampler
DYEAR=2001
DGENRE=New Age
TTITLE0=Gerald Jay Markoe - 'Zen Meditations' Selections
TTITLE1=Blackmore's Night - Hanging Tree
TTITLE2=Serah - I'm Not in Love
TTITLE3=Bruce Kaphan - High Desert
TTITLE4=Anakhi - Lok Boliyan
TTITLE5=American Rock Orchestra - Red Rain
TTITLE6=Mars Lasar - Great Beast of Wisdom
TTITLE7=James Durst - In the Northern Hemisphere
TTITLE8=Richard Bone - A Column of Glyphs
TTITLE9=Simon Shaheen and Qantara - Tea in the Sahara
TTITLE10=Darlene Koldenhoven - Pie Jesu
TTITLE11=Laura Nashman and Michael Moon - Enchantment
TTITLE12=Kevin Asbjornson - Standing in the Now
TTITLE13=Steven C Anderson - My Puddle
EXTD=YEAR: 2001
EXTT0=
EXTT1=
EXTT2=
EXTT3=
EXTT4=
EXTT5=
EXTT6=
EXTT7=
EXTT8=
EXTT9=
EXTT10=
EXTT11=
EXTT12=
EXTT13=
PLAYORDER=
